/* XPM */
static char *_00e074b839c47298b1b200c742c0408qPMGao7ncPzv0YPR[] = {
/* columns rows colors chars-per-pixel */
"64 64 194 2 ",
"   c None",
".  c #037E00",
"X  c #0A7C01",
"o  c #157703",
"O  c #1B7403",
"+  c #137B02",
"@  c #1C7C04",
"#  c #2B6E05",
"$  c #266F05",
"%  c #386707",
"&  c #356907",
"*  c #3D6508",
"=  c #237204",
"-  c #2C7305",
";  c #227A04",
":  c #2D7A06",
">  c #347407",
",  c #387507",
"<  c #377907",
"1  c #3A7907",
"2  c #3E7708",
"3  c #4D5F0A",
"4  c #545E0B",
"5  c #6C510E",
"6  c #72540F",
"7  c #73590F",
"8  c #7F4A11",
"9  c #785610",
"0  c #755910",
"q  c #426309",
"w  c #4B610A",
"e  c #426F09",
"r  c #576A0C",
"t  c #427009",
"y  c #487609",
"u  c #4C7D0A",
"i  c #5C7E0E",
"p  c #6F7214",
"a  c #864516",
"s  c #8A4613",
"d  c #864719",
"f  c #8C4919",
"g  c #8D4816",
"h  c #934B17",
"j  c #9D4E16",
"k  c #934D1A",
"l  c #994F1A",
"z  c #8F5819",
"x  c #97511D",
"c  c #9B521C",
"v  c #9C5A1A",
"b  c #A2541C",
"n  c #A35A1E",
"m  c #AC5A1D",
"M  c #AA5619",
"N  c #85641B",
"B  c #8D691D",
"V  c #9F601E",
"C  c #935322",
"Z  c #9A5623",
"A  c #9D5925",
"S  c #975B2B",
"D  c #9D5C2A",
"F  c #935F21",
"G  c #A45B24",
"H  c #AA5D23",
"J  c #A25D28",
"K  c #A85F29",
"L  c #8D6D22",
"P  c #986021",
"I  c #AC6126",
"U  c #A5612C",
"Y  c #AD632B",
"T  c #A26723",
"R  c #B36326",
"E  c #B2652B",
"W  c #B5692E",
"Q  c #B96B2E",
"!  c #AC6631",
"~  c #AD6933",
"^  c #B36B32",
"/  c #BA6E32",
"(  c #BC7136",
")  c #BB753B",
"_  c #B4733B",
"`  c #C26F31",
"'  c #C37234",
"]  c #CA7535",
"[  c #C37639",
"{  c #C2793D",
"}  c #CB7B3C",
"|  c #BA7741",
" . c #C47E42",
".. c #C87F42",
"X. c #018200",
"o. c #088301",
"O. c #018B00",
"+. c #0C8D01",
"@. c #148302",
"#. c #1D8604",
"$. c #168D03",
"%. c #188B03",
"&. c #019300",
"*. c #0B9301",
"=. c #019B00",
"-. c #0B9B01",
";. c #129502",
":. c #1E9404",
">. c #149B02",
",. c #1E9904",
"<. c #228404",
"1. c #2C8406",
"2. c #278C05",
"3. c #308706",
"4. c #338D07",
"5. c #3B8F08",
"6. c #239304",
"7. c #2A9405",
"8. c #239A04",
"9. c #2B9B05",
"0. c #3E9509",
"q. c #319906",
"w. c #00A200",
"e. c #01A100",
"r. c #00A500",
"t. c #00A600",
"y. c #00A700",
"u. c #05A500",
"i. c #02A400",
"p. c #0CA401",
"a. c #00A800",
"s. c #00AA00",
"d. c #00AB00",
"f. c #01AB00",
"g. c #03AA00",
"h. c #00AC00",
"j. c #00AD00",
"k. c #00AE00",
"l. c #03AE00",
"z. c #02AB00",
"x. c #08AE01",
"c. c #09AB01",
"v. c #13A202",
"b. c #1BA203",
"n. c #13AC02",
"m. c #1CAB03",
"M. c #00B000",
"N. c #00B300",
"B. c #03B300",
"V. c #04B000",
"C. c #00B500",
"Z. c #00B700",
"A. c #02B500",
"S. c #0CB301",
"D. c #00B800",
"F. c #00BA00",
"G. c #02BA00",
"H. c #00BC00",
"J. c #00BE00",
"K. c #02BB00",
"L. c #0ABC01",
"P. c #14B202",
"I. c #22A504",
"U. c #438609",
"Y. c #488109",
"T. c #478B0B",
"R. c #00C100",
"E. c #00C300",
"W. c #00C500",
"Q. c #00C700",
"!. c #02C400",
"~. c #08C001",
"^. c #00C800",
"/. c #00C800",
"(. c #D6823E",
"). c #DC843E",
"_. c #CB8245",
"`. c #CB894D",
"'. c #C48045",
"]. c #D78948",
"[. c #DC934F",
"{. c #CB8D51",
"}. c #CF9556",
"|. c #D49353",
" X c #DB9554",
".X c #DB9C5B",
"XX c #E49C5A",
"oX c #E79A57",
"OX c #E6A05D",
"+X c #ECA25E",
"@X c #ECA560",
"#X c #EFA963",
"$X c #E5A661",
"%X c #F0A460",
/* pixels */
"                                                                                                                                ",
"                                                                                                                                ",
"                                                        ^.^.        ^.^.                                                        ",
"                              ^.                    ^.  ^.^.^.    ^.^.^.  ^.                    ^.                              ",
"                              ^.    ^.      X.      ^.^.^.^.^.^.^.^.^.^.^.^.      X.      ^.    ^.                              ",
"                            ^.  ^.  ^.^.    X.  X.e.^.^.^.  ^.^.^.^.  ^.^.^.E.X.  .     ^.^.  ^.  ^.                            ",
"                            ^.    F.^.^.  X.. . X.=.Z.^.^.^.J.^.^.W.^.^.^.J.J.. . X..   ^.^.=.    ^.                            ",
"                  X.O.=.^.^.Z.^.  E.E.h.O..   . + =.d.W.W.^.=.^.^.F.^.W.^.h.o.O.X.  X.X.d.F.O.  ^.&.^.^.J.=.X.                  ",
"                  X.&.=.F.d.d.J.d.h.r.&.O.. X * X.e.e.E.W.=.=.e.M.r.r.^.J.l.u.X.  X.. O.X.X.O.. F.O.&.E.J.F.X.                  ",
"              =.X.e.r.Z.r.e.&.&.=.e.&.&.O.X.. . X X Z.r.^.O.&.O.&.&.&.W.G.n.+ O.X.X.. . O.X.&.O.O.O.d.F.J.Z.Z.X.M.              ",
"              X.&.r.  h.r.e.h.=.O.O.O.O.O.. X . X O.&.&.&.O.O.. X.O.r.c.h.v.-.O.=.. X.X.&.O.X.O.O.h.F.M.M.  J.d.O.              ",
"              X.=.=.h.J.E.Z.d.d.&.O.&.O.X.O.X $ @ &.O.. O.&.O.O.&.d.V.*.o.+.Z.r.O.. O.O.d.e.=.X.O.F.J.J.E.F.F.M.X.              ",
"            X.O.=.&.Z.F.M.M.h.Z.e.&.O.O.O.O.. o &.&.O.O.&.&.e.O.O.c.;.>.z.d.h.=.O.O.e.=.e.h.r.O.h.M.M.F.J.J.&.d.=.O.            ",
"            X.  F.Z.E.E.r.d.F.Z.r.O.O.&.&.O.X.X.o.. O.=.r.h.h.O.-.b.7.,.d.=.&.&.&.&.r.h.=.d.=.d.F.d.h.d.W.W.=.J.  X.            ",
"          X.X.X.r.M.M.W.E.F.Z.=.O.&.&.=.=.O.O.. @.X.X.&.    =.&.-.-.1.u.=.&.&.&.O.r.&.d.r.r.=.&.-.r.r.E.W.&.&.&.X.. .           ",
"          X.. . O.&.&.Z.J.M.d.J.d.r.=.&.=.. +.+ & o . O.O.X.O.+ @ +.O.&.O.O.O.%.O.&.O.d.e.d.c.-.r.&.r.J.Z.O.&.X.. X.X.          ",
"      X.. . X.. . . X.&.J.F.+.M.I.J.=.X.X.X.. O X.o . O.X.O.X.# # O.O.O.O.X.X X.o O.&.O.&.-.u.8.O.o.Z.F.M.X.. X.. X.X.X..       ",
"      X.X.X.X.. X.. o.=.r.W.M.@ S.r.O.M.X.O.r.X X = O O.O.O.X O O X =.=.O.o.O X . O.O.O.O.+ O.*.X r.^.M.V.&.. &.. . . X.X.      ",
"          X.X.. X.@.+., d.r.J.n.:.u.r.X.X.X.Z.X # p.o.p.&.O.. # - O.=.h.M.&.+.= . &.X.. # + @.*.e.J.d.d., c.$.&.X.X..           ",
"              X.. &.-.: V.=.L.x.n.-.=.h.. M.Z.W.<.l.-.O.d.O.&.%.%.z.=.F.h.-.&.:.=.&.O.+ 1 ; $.h.F.E.d.l.3.x.h.X.X.              ",
"              X.. O.O.<.1.<.-.&.-.-.=.=.X.F.. F.-.z.L.o.%.=.*.:.6.c.h.d.-.V.&.&.&.. -.O @.O.O.=.M.M.7.7.:.e.=.O.O.              ",
"              X.O.O.  O.: 7.&.l.-.=.&.J.Z.Z.M.X.W.l.P.#.6.u.-.v.b.p.Z.B.>.S.=.F.. O.;.&.u.O.X.d.F.-.7.3.-.  &.O..               ",
"        X.  X.. . X.O.O.o.&.@.c.d.J.O.F.Z.M.F.J.Z.l.-.6.7.S.S.6.6.G.W.m.8.-.&.O.v.&.O.;.d.. O.&.V.@.&.&.=.O.&.O.. X.  X.        ",
"          X.. X.. O.. O.X.Z.c.1 c.-.. J.=.=.&.d.r.m.F.m.4.S.S.7.9.L.W.2.m.Z.n.o.$.+ X < n.X *.o.1 -.&.X.O.. O.X.. X.X.          ",
"          X.. X.X.. X.. d.&.h.e.%.-.-.o X o.O.O.  Z.B.n.^.P.P.9.9.L.L.W.*.Z.p.7 . = + o o o.o.;.X.=.O.r.X.. X.. X.. X.          ",
"          X.X.. . X.X.X.M.O.d.+.V.;.%.$.o 4 = X X E.Z.>.L.T.~.q.9.E.0.J.-.z.Z.$ o X - . o.o.X.O.X.O.O.=.X.X.. X.. X.X.          ",
"                  X.. X.X.X.r.&.r.b.%.> # O & q % S.n.W.u I.P./.!.L.m.y ^.8.n.& X . X.. O.=.e.&.O.&.X.X.. X.X.                  ",
"                          h.      =.&.q # q w & e 6 9.P.m.P.I.~.~.I.P.m.P.9.5 <..   . X.  O.&.      r.                          ",
"                                        o q q q w 4.u U.T.p Y.T.0.i p T.U.Y.I.  X.X.                                            ",
"                                        X.  $ 3 e r 7 7 N L T v v z B N 9 r           X.                                        ",
"                                                  8 s s F U I V v v I V                                                         ",
"                                                    s s K Y Q m M x K E                                                         ",
"                                                        ! W E H n x K Y                                                         ",
"                                                        ` ! R x h f Z U                                                         ",
"                                                        ( ^ J f d f Z J                                                         ",
"                                                        } / Z d d h Z U                                                         ",
"                                                        { ^ G k f c K E                                                         ",
"                                                        [ / J l h c I Q                                                         ",
"                                                        ^ ~ R M c c I Q                                                         ",
"                                                        ~ W K G x b K W                                                         ",
"                                                        ! ! E G c c K E                                                         ",
"                                                        ! K Z k f c K Y                                                         ",
"                                                        U D C k h b I W                                                         ",
"                                                        U S C Z c m E Q                                                         ",
"                                                        ~ U G c h H R ]                                                         ",
"                                                        ~ Y A c l m R `                                                         ",
"                                                        ( ^ A c h n R `                                                         ",
"                                                        J D C k k G K W                                                         ",
"                                                        S D Z C g H H Q                                                         ",
"                                                        S P C k g c G U                                                         ",
"                                                        ( ^ D k g c J U                                                         ",
"                                                        (.' K f k f Z Z                                                         ",
"                                                        ).[ I h c Z G J                                                         ",
"                                                        ( ( I x h k K W                                                         ",
"                                                      ) ^ ! I g g k H / }                                                       ",
"                                                    '._ ^ Y n a a h K ` } ].                                                    ",
"                                                  |.....] E m g h h H / } _._.                                                  ",
"                                                .X X.. ./ H m j j h b Q } ]._.].                                                ",
"                                              OX}.{. .( E G m M M j j K ` ..| `.|.                                              ",
"                                            #XOX|.{.{ K G c b b b h h C K [ .. X X%X                                            ",
"                                          OX+XOX|.| / K R K R b b k x d x W  .oXoX%XXX                                          ",
"                                          #X#X+X[.( W R / ` R b g k C C Z E ] ].XX@X#X%X                                        ",
"                                          OX.X X) Q ^ ( _ W H j g l G K ! K R / `.XX@X+X                                        ",
"                                          OX{.'.U ( { ..! K Z h g G J W / ! A C )  XXXXX                                        "
};
